<?xml version="1.0" encoding="iso-8859-1"?>
<!-- Generator: Adobe Illustrator 19.0.0, SVG Export Plug-In . SVG Version: 6.00 Build 0)  -->
<svg version="1.1" id="Capa_1" xmlns="http://www.w3.org/2000/svg" xmlns:xlink="http://www.w3.org/1999/xlink" x="0px" y="0px"
	 viewBox="0 0 512 512" style="enable-background:new 0 0 512 512;" xml:space="preserve">
<g>
	<g>
		<path d="M168.352,351.792c-31.786,0-57.64,25.864-57.64,57.65c0,8.208,2.456,22.948,23.707,56.032
			c10.915,16.996,21.68,30.817,22.129,31.396L168.352,512l11.814-15.129c0.449-0.579,11.214-14.4,22.129-31.396
			c21.251-33.084,23.707-47.824,23.707-56.032C226.002,377.656,200.137,351.792,168.352,351.792z"/>
	</g>
</g>
<g>
	<g>
		<path d="M419.054,242.364V103.327c0-18.275-7.15-43-18.225-62.983C386.429,14.33,367.755,0,348.272,0h-6.181
			c-19.493,0-38.157,14.33-52.567,40.344c-11.065,19.982-18.215,44.708-18.215,62.983v106.821h-30.618V103.327
			c0-18.275-7.15-43-18.215-62.983C208.066,14.33,189.402,0,169.909,0h-6.181c-19.483,0-38.157,14.33-52.557,40.344
			c-11.075,19.982-18.225,44.708-18.225,62.983v139.037h147.745v29.958H92.946v59.458h147.745V295.9h30.618v35.88h147.745v-59.458
			H271.309v-29.958H419.054z"/>
	</g>
</g>
<g>
	<g>
		<path d="M346.714,351.792c-31.786,0-57.64,25.864-57.64,57.65c0,8.208,2.456,22.948,23.707,56.032
			c10.915,16.996,21.67,30.817,22.13,31.396L346.714,512l11.814-15.129c0.449-0.579,11.214-14.4,22.119-31.396
			c21.251-33.084,23.707-47.824,23.707-56.032C404.354,377.656,378.5,351.792,346.714,351.792z"/>
	</g>
</g>
<g>
</g>
<g>
</g>
<g>
</g>
<g>
</g>
<g>
</g>
<g>
</g>
<g>
</g>
<g>
</g>
<g>
</g>
<g>
</g>
<g>
</g>
<g>
</g>
<g>
</g>
<g>
</g>
<g>
</g>
</svg>
