<?xml version="1.0" encoding="iso-8859-1"?>
<!-- Generator: Adobe Illustrator 19.0.0, SVG Export Plug-In . SVG Version: 6.00 Build 0)  -->
<svg version="1.1" id="Capa_1" xmlns="http://www.w3.org/2000/svg" xmlns:xlink="http://www.w3.org/1999/xlink" x="0px" y="0px"
	 viewBox="0 0 512 512" style="enable-background:new 0 0 512 512;" xml:space="preserve">
<rect x="233.17" y="210.44" style="fill:#9BFCFF;" width="45.667" height="85.87"/>
<path style="fill:#004EB1;" d="M239.229,103.47v228.77H91.279V103.47c0-18.3,7.16-43.06,18.25-63.07
	c14.42-26.05,33.12-40.4,52.63-40.4h6.19c19.52,0,38.21,14.35,52.64,40.4C232.069,60.41,239.229,85.17,239.229,103.47z"/>
<rect x="91.28" y="242.7" style="fill:#FFA01A;" width="147.95" height="30"/>
<path style="fill:#FE3F4E;" d="M224.519,409.3c0,8.22-2.46,22.98-23.74,56.11c-10.93,17.02-21.71,30.86-22.16,31.44L166.789,512
	l-11.82-15.15c-0.45-0.58-11.23-14.42-22.16-31.44c-21.28-33.13-23.74-47.89-23.74-56.11c0-31.83,25.89-57.73,57.72-57.73
	S224.519,377.47,224.519,409.3z"/>
<path style="fill:#002D6B;" d="M239.229,103.47v228.77h-72.44V0h1.56c19.52,0,38.21,14.35,52.64,40.4
	C232.069,60.41,239.229,85.17,239.229,103.47z"/>
<path style="fill:#E30030;" d="M224.519,409.3c0,8.22-2.46,22.98-23.74,56.11c-10.93,17.02-21.71,30.86-22.16,31.44L166.789,512
	V351.57C198.619,351.57,224.519,377.47,224.519,409.3z"/>
<rect x="166.79" y="242.7" style="fill:#FF6300;" width="72.44" height="30"/>
<path style="fill:#004EB1;" d="M420.721,103.47v228.77h-147.95V103.47c0-18.3,7.16-43.06,18.25-63.07
	c14.42-26.05,33.12-40.4,52.63-40.4h6.19c19.52,0,38.21,14.35,52.64,40.4C413.561,60.41,420.721,85.17,420.721,103.47z"/>
<rect x="272.77" y="242.7" style="fill:#FFA01A;" width="147.95" height="30"/>
<path style="fill:#FE3F4E;" d="M406.011,409.3c0,8.22-2.46,22.98-23.74,56.11c-10.93,17.02-21.71,30.86-22.16,31.44L348.281,512
	l-11.82-15.15c-0.45-0.58-11.23-14.42-22.16-31.44c-21.28-33.13-23.74-47.89-23.74-56.11c0-31.83,25.89-57.73,57.72-57.73
	C380.111,351.57,406.011,377.47,406.011,409.3z"/>
<path style="fill:#002D6B;" d="M420.721,103.47v228.77h-72.44V0h1.56c19.52,0,38.21,14.35,52.64,40.4
	C413.561,60.41,420.721,85.17,420.721,103.47z"/>
<path style="fill:#E30030;" d="M406.011,409.3c0,8.22-2.46,22.98-23.74,56.11c-10.93,17.02-21.71,30.86-22.16,31.44L348.281,512
	V351.57C380.111,351.57,406.011,377.47,406.011,409.3z"/>
<rect x="348.28" y="242.7" style="fill:#FF6300;" width="72.44" height="30"/>
<g>
</g>
<g>
</g>
<g>
</g>
<g>
</g>
<g>
</g>
<g>
</g>
<g>
</g>
<g>
</g>
<g>
</g>
<g>
</g>
<g>
</g>
<g>
</g>
<g>
</g>
<g>
</g>
<g>
</g>
</svg>
